<?xml version="1.0" encoding="UTF-8"?>
<svg width="251px" height="200px" viewBox="0 0 251 200" version="1.1" xmlns="http://www.w3.org/2000/svg" xmlns:xlink="http://www.w3.org/1999/xlink">
    <title>疾速 Wi-Fi 6</title>
    <defs>
        <linearGradient x1="23.6380551%" y1="18.2544722%" x2="64.115322%" y2="81.7455278%" id="linearGradient-1">
            <stop stop-color="#7ADFDF" offset="0%"></stop>
            <stop stop-color="#75A9DE" offset="100%"></stop>
        </linearGradient>
    </defs>
    <g id="MOB" stroke="none" stroke-width="1" fill="none" fill-rule="evenodd">
        <g id="电池-MO" transform="translate(-234.000000, -2925.000000)" fill="url(#linearGradient-1)" fill-rule="nonzero">
            <path d="M359.5,3037.67606 C383.661281,3037.67606 403.213483,3057.25368 403.213483,3081.33803 C403.213483,3105.42238 383.661281,3125 359.5,3125 C335.387235,3125 315.786517,3105.42238 315.786517,3081.33803 C315.786517,3057.25368 335.338719,3037.67606 359.5,3037.67606 Z M360.761432,3053.86152 C356.977135,3053.86152 353.678004,3054.68533 350.86404,3056.23603 C348.050075,3057.78673 345.81831,3060.01587 344.265778,3062.92343 C342.713246,3065.831 341.93698,3069.22316 341.93698,3073.14838 L341.93698,3073.14838 L341.93698,3088.84924 C341.93698,3092.4837 342.713246,3095.73049 344.314295,3098.54114 C345.915344,3101.35178 348.050075,3103.53246 350.71849,3105.13162 C353.386905,3106.73078 356.443452,3107.50614 359.7911,3107.50614 C363.041714,3107.50614 366.001228,3106.73078 368.71816,3105.18008 C371.386574,3103.62938 373.569823,3101.54562 375.219388,3098.92881 C376.820437,3096.312 377.645219,3093.40443 377.596703,3090.10919 C377.596703,3086.86241 376.868953,3083.95484 375.461971,3081.43495 C374.054989,3078.91506 372.065807,3076.87976 369.591459,3075.42597 C367.117111,3073.97219 364.25463,3073.2453 361.004016,3073.2453 C358.772251,3073.2453 356.589002,3073.72989 354.502787,3074.69908 C353.047288,3075.37751 351.834373,3076.24979 350.71849,3077.26743 L350.71849,3077.26743 L350.71849,3071.88843 C350.71849,3070.19235 351.15514,3068.54473 351.979922,3067.04249 C352.804705,3065.54024 353.969104,3064.2803 355.47312,3063.35957 C356.977135,3062.43884 358.772251,3061.95424 360.761432,3061.95424 C362.216931,3061.95424 363.575397,3062.245 364.885346,3062.87497 C366.146778,3063.45649 367.262661,3064.32876 368.184477,3065.39487 L368.184477,3065.39487 L374.443122,3059.33743 C372.59949,3057.44752 370.513275,3056.04219 368.184477,3055.16992 C365.855678,3054.29765 363.38133,3053.86152 360.761432,3053.86152 Z M358.843958,3081.33803 C360.510455,3081.33803 362.078922,3081.72968 363.451331,3082.56195 C364.872754,3083.39422 365.951076,3084.52022 366.735309,3085.89101 C367.568557,3087.31076 367.960674,3088.87738 367.960674,3090.54191 C367.960674,3092.20645 367.568557,3093.77307 366.735309,3095.14386 C365.902061,3096.51465 364.82374,3097.5917 363.402316,3098.42397 C361.980893,3099.25623 360.412426,3099.64789 358.745929,3099.64789 C357.079433,3099.64789 355.510966,3099.25623 354.138557,3098.42397 C352.766148,3097.5917 351.687827,3096.51465 350.854579,3095.0949 C350.02133,3093.67515 349.629213,3092.15749 349.629213,3090.54191 C349.629213,3088.87738 350.02133,3087.26181 350.854579,3085.89101 C351.687827,3084.52022 352.766148,3083.39422 354.187571,3082.56195 C355.608995,3081.72968 357.177462,3081.33803 358.843958,3081.33803 Z M359.5,2988.38028 C388.664238,2988.38028 417.247129,2999.64789 438.466292,3019.31845 L438.466292,3019.31845 L421.268112,3036.26761 C404.602833,3021.03724 382.269422,3012.25233 359.5,3012.25233 C336.730578,3012.25233 314.445612,3021.03724 297.731888,3036.26761 L297.731888,3036.26761 L280.533708,3019.31845 C301.752871,2999.60014 330.335762,2988.38028 359.5,2988.38028 Z M359.5,2925 C405.790585,2925 451.108679,2942.84278 485,2974.03137 L485,2974.03137 L467.786904,2991.14883 C438.466292,2964.40884 399.372143,2949.1772 359.5,2949.1772 C319.627857,2949.1772 280.533708,2964.40884 251.213096,2991.19718 L251.213096,2991.19718 L234,2974.07972 C267.891321,2942.84278 313.209415,2925 359.5,2925 Z" id="疾速-Wi-Fi-6"></path>
        </g>
    </g>
</svg>