<?xml version="1.0" encoding="UTF-8"?>
<svg width="240px" height="240px" viewBox="0 0 240 240" version="1.1" xmlns="http://www.w3.org/2000/svg" xmlns:xlink="http://www.w3.org/1999/xlink">
    <title>流畅通信</title>
    <defs>
        <linearGradient x1="0%" y1="0%" x2="98.7012058%" y2="94.225369%" id="linearGradient-1">
            <stop stop-color="#CDE2DD" offset="0%"></stop>
            <stop stop-color="#A0BCA7" offset="100%"></stop>
        </linearGradient>
        <linearGradient x1="23.6380551%" y1="0%" x2="64.115322%" y2="100%" id="linearGradient-2">
            <stop stop-color="#7ADFDF" offset="0%"></stop>
            <stop stop-color="#75A9DE" offset="100%"></stop>
        </linearGradient>
        <path d="M360,2190 C426.169045,2190 480,2243.83095 480,2310 C480,2376.16905 426.169045,2430 360,2430 C293.830955,2430 240,2376.16905 240,2310 C240,2243.83095 293.830955,2190 360,2190 Z M360,2207.56312 C303.534577,2207.56312 257.563117,2253.53458 257.563117,2310 C257.563117,2366.46542 303.534577,2412.43688 360,2412.43688 C416.465423,2412.43688 462.436883,2366.46542 462.436883,2310 C462.436883,2253.53458 416.465423,2207.56312 360,2207.56312 Z M360,2258.05708 C382.919868,2258.05708 401.580681,2276.71789 401.580681,2299.63776 C401.580681,2317.24479 390.515917,2332.30516 375.016465,2338.32053 L375.016465,2338.32053 L393.852909,2393.90779 L375.060373,2393.90779 L370.625686,2380.86718 L349.330406,2380.86718 L344.895719,2393.90779 L326.103183,2393.90779 L344.939627,2338.32053 C329.440176,2332.30516 318.419319,2317.24479 318.419319,2299.63776 C318.419319,2276.71789 337.080132,2258.05708 360,2258.05708 Z M360,2223.01866 C403.995609,2223.01866 439.780461,2258.84742 439.780461,2302.79912 C439.780461,2333.84193 421.909989,2360.75741 395.960483,2373.92975 L395.960483,2373.92975 L389.637761,2357.50823 C409.045005,2346.97036 422.217344,2326.37761 422.217344,2302.79912 C422.217344,2268.50714 394.335895,2240.58178 360,2240.58178 C325.708013,2240.58178 297.782656,2268.46323 297.782656,2302.79912 C297.782656,2326.37761 310.954995,2346.97036 330.362239,2357.50823 L330.362239,2357.50823 L324.039517,2373.92975 C298.090011,2360.75741 280.219539,2333.84193 280.219539,2302.79912 C280.219539,2258.80351 316.004391,2223.01866 360,2223.01866 Z M360,2349.51701 L355.301866,2363.34797 L364.698134,2363.34797 L360,2349.51701 Z M360,2275.6202 C346.739846,2275.6202 335.982437,2286.42151 335.982437,2299.63776 C335.982437,2312.89791 346.739846,2323.65532 360,2323.65532 C373.260154,2323.65532 384.017563,2312.89791 384.017563,2299.63776 C384.017563,2286.37761 373.260154,2275.6202 360,2275.6202 Z" id="path-3"></path>
    </defs>
    <g id="MOB" stroke="none" stroke-width="1" fill="none" fill-rule="evenodd">
        <g id="电池-MO" transform="translate(-240.000000, -2190.000000)" fill-rule="nonzero">
            <g id="流畅通信">
                <use fill="url(#linearGradient-1)" xlink:href="#path-3"></use>
                <use fill="url(#linearGradient-2)" xlink:href="#path-3"></use>
            </g>
        </g>
    </g>
</svg>